# xmcd
#
# Track frame offsets:
#	150
#	12682
#	37987
#	62422
#	85367
#	103977
#	122042
#	138430
#	159410
#	186167
#
# Disc length: 2823 seconds
#
# Revision: 1
# Processed by: cddbd v1.5.1PL0 Copyright (c) Steve Scherf et al.
# Submitted via: CDex 1.50Beta5
#
DISCID=850b050a
DTITLE=崎元 仁/松尾 早人 - ソードマニアック
DYEAR=1900
DGENRE=Soundtrack
TTITLE0=The Shudders
TTITLE1=Heartless Battle
TTITLE2=Shadow Devourer
TTITLE3=Unlimited Desire
TTITLE4=The Retribution
TTITLE5=Iron Jungle
TTITLE6=Hunting Beast
TTITLE7=Mad Buffon
TTITLE8=Start an Attack!!
TTITLE9=The Brave Fencer
EXTD=
EXTT0=
EXTT1=
EXTT2=
EXTT3=
EXTT4=
EXTT5=
EXTT6=
EXTT7=
EXTT8=
EXTT9=
PLAYORDER=
